<svg width="150" height="40" viewBox="0 0 150 40" fill="none" xmlns="http://www.w3.org/2000/svg">
  <path d="M22.5 5C13.94 5 7 11.94 7 20.5C7 29.06 13.94 36 22.5 36C31.06 36 38 29.06 38 20.5C38 11.94 31.06 5 22.5 5ZM22.5 33C15.596 33 10 27.404 10 20.5C10 13.596 15.596 8 22.5 8C29.404 8 35 13.596 35 20.5C35 27.404 29.404 33 22.5 33Z" fill="white"/>
  <path d="M22.5 11C17.253 11 13 15.253 13 20.5C13 25.747 17.253 30 22.5 30C27.747 30 32 25.747 32 20.5C32 15.253 27.747 11 22.5 11ZM22.5 27C18.91 27 16 24.09 16 20.5C16 16.91 18.91 14 22.5 14C26.09 14 29 16.91 29 20.5C29 24.09 26.09 27 22.5 27Z" fill="#E84D3D"/>
  <path d="M45 15V29H48V15H45Z" fill="white"/>
  <path d="M52 15V29H55V15H52Z" fill="white"/>
  <path d="M60 15V18H63V26H66V18H69V15H60Z" fill="white"/>
  <path d="M72 15V29H75V24H79V21H75V18H80V15H72Z" fill="white"/>
  <path d="M84 15L80 29H83L84 25H88L89 29H92L88 15H84ZM85 22L86 19L87 22H85Z" fill="white"/>
  <path d="M96 15L92 29H95L96 25H100L101 29H104L100 15H96ZM97 22L98 19L99 22H97Z" fill="white"/>
  <path d="M107 15V29H110V15H107Z" fill="white"/>
  <path d="M114 15V29H122V26H117V23H121V20H117V18H122V15H114Z" fill="white"/>
  <path d="M125 15V29H128V24H130C132.761 24 135 21.761 135 19C135 16.239 132.761 14 130 14H125V15ZM128 18H130C131.105 18 132 18.895 132 20C132 21.105 131.105 22 130 22H128V18Z" fill="white"/>
  <path d="M138 15V29H141V24H145V21H141V18H146V15H138Z" fill="white"/>
</svg> 